Coordinates
version=1
nRows=38
nColumns=12
inDegrees=yes

Units are S.I. units (second, meters, Newtons, ...)
Angles are in degrees

endheader
time	SC_y	SC_z	SC_x	AC_y	AC_z	AC_x	GH_y	GH_z	GH_yy	EL_x	PS_y
       0.0              -39.88         -1.579          23.84          69.76          2.884         -8.342          18.08           40.7          99.23          44.09          22.09
   0.01979              -39.88         -1.577          23.84          69.76          2.884         -8.343          18.07          40.69          99.19          44.09          22.09
   0.03958              -39.88         -1.574          23.84          69.75          2.884         -8.344          18.06          40.68          99.16          44.09          22.09
   0.05937              -39.87         -1.572          23.84          69.75          2.884         -8.345          18.04          40.67          99.12           44.1          22.09
   0.07916              -39.87         -1.569          23.84          69.75          2.884         -8.346          18.03          40.66          99.08           44.1          22.09
   0.09895              -39.87         -1.567          23.84          69.74          2.884         -8.348          18.02          40.65          99.04           44.1          22.08
    0.1187              -39.87         -1.564          23.83          69.74          2.884         -8.349           18.0          40.64           99.0           44.1          22.08
    0.1385              -39.87         -1.561          23.83          69.74          2.884          -8.35          17.99          40.62          98.95          44.11          22.08
    0.1583              -39.87         -1.557          23.83          69.73          2.884         -8.352          17.97          40.61           98.9          44.11          22.08
    0.1781              -39.86         -1.554          23.83          69.73          2.884         -8.353          17.95           40.6          98.84          44.11          22.08
    0.1979              -39.86          -1.55          23.82          69.72          2.884         -8.355          17.94          40.58          98.78          44.12          22.07
    0.2177              -39.86         -1.546          23.82          69.72          2.884         -8.357          17.91          40.56          98.72          44.12          22.07
    0.2375              -39.86         -1.541          23.82          69.71          2.883         -8.359          17.89          40.55          98.65          44.12          22.07
    0.2573              -39.85         -1.536          23.81          69.71          2.883         -8.361          17.87          40.53          98.58          44.13          22.06
    0.2771              -39.85         -1.531          23.81           69.7          2.883         -8.364          17.84          40.51           98.5          44.13          22.06
    0.2969              -39.85         -1.525          23.81          69.69          2.883         -8.366          17.82          40.48          98.41          44.14          22.06
    0.3166              -39.84         -1.519           23.8          69.68          2.883         -8.369          17.79          40.46          98.32          44.14          22.05
    0.3364              -39.84         -1.512           23.8          69.68          2.883         -8.372          17.75          40.43          98.22          44.15          22.05
    0.3562              -39.84         -1.505          23.79          69.67          2.883         -8.375          17.72          40.41           98.1          44.16          22.04
     0.376              -39.83         -1.497          23.79          69.66          2.883         -8.379          17.68          40.37          97.98          44.16          22.04
    0.3958              -39.83         -1.488          23.78          69.65          2.883         -8.383          17.63          40.34          97.85          44.17          22.03
    0.4156              -39.82         -1.479          23.77          69.63          2.882         -8.387          17.59           40.3           97.7          44.18          22.02
    0.4354              -39.82         -1.468          23.76          69.62          2.882         -8.392          17.53          40.26          97.54          44.19          22.02
    0.4552              -39.81         -1.456          23.76          69.61          2.882         -8.397          17.48          40.21          97.36           44.2          22.01
     0.475               -39.8         -1.443          23.75          69.59          2.882         -8.403          17.41          40.16          97.16          44.21           22.0
    0.4948              -39.79         -1.428          23.74          69.57          2.882          -8.41          17.34           40.1          96.93          44.23          21.99
    0.5145              -39.78         -1.412          23.72          69.55          2.881         -8.417          17.26          40.04          96.68          44.24          21.98
    0.5343              -39.77         -1.393          23.71          69.53          2.881         -8.426          17.17          39.96           96.4          44.26          21.97
    0.5541              -39.76         -1.372          23.69           69.5          2.881         -8.435          17.07          39.88          96.08          44.28          21.95
    0.5739              -39.75         -1.348          23.68          69.47           2.88         -8.446          16.95          39.79          95.71           44.3          21.93
    0.5937              -39.73         -1.321          23.66          69.44           2.88         -8.458          16.82          39.68           95.3          44.33          21.92
    0.6135              -39.71          -1.29          23.63           69.4          2.879         -8.472          16.66          39.56          94.83          44.35          21.89
    0.6333              -39.69         -1.254          23.61          69.35          2.879         -8.488          16.49          39.41          94.28          44.39          21.87
    0.6531              -39.67         -1.212          23.58           69.3          2.878         -8.507          16.28          39.25          93.64          44.43          21.84
    0.6729              -39.64         -1.163          23.54          69.24          2.877         -8.529          16.04          39.06          92.89          44.47          21.81
    0.6927              -39.61         -1.105           23.5          69.17          2.876         -8.555          15.76          38.83          92.01          44.52          21.77
    0.7124              -39.57         -1.036          23.45          69.08          2.875         -8.586          15.42          38.56          90.97          44.59          21.72
    0.7322              -39.52        -0.9542          23.39          68.98          2.874         -8.623          15.02          38.23          89.72          44.66          21.67
